<svg height="470pt" viewBox="-63 0 470 470.86656" width="470pt" xmlns="http://www.w3.org/2000/svg">
    <path d="m96.433594 270.867188h185.207031c2.457031-19.53125 7.546875-38.636719 15.136719-56.800782 5.855468-14.398437 8.410156-29.929687 7.472656-45.449218-.539062-8.761719-2.214844-17.421876-4.992188-25.75h-205.738281l-29.085937 80h32zm0 0" fill="#e34b87" />
    <path d="m257.121094 248.113281-15.65625-3.335937c2.828125-13.105469 6.644531-25.976563 11.410156-38.511719l14.964844 5.648437c-4.476563 11.78125-8.058594 23.882813-10.71875 36.199219zm0 0" fill="#f7609c" />
    <path d="m274.953125 190.25-15.695313-3.054688c.785157-4.0625 1.179688-8.191406 1.175782-12.328124h16c.003906 5.164062-.492188 10.316406-1.480469 15.382812zm0 0" fill="#f7609c" />
    <path d="m104.050781 253.507812h-7.617187v-16h7.617187c9.808594-.125 19.085938-4.484374 25.4375-11.960937l11.953125 10.640625c-9.425781 10.835938-23.03125 17.136719-37.390625 17.320312zm0 0" fill="#bf3d75" />
    <path d="m168.433594 190.867188c0 8.835937-7.164063 16-16 16-8.835938 0-16-7.164063-16-16 0-8.835938 7.164062-16 16-16 8.835937 0 16 7.164062 16 16zm0 0" fill="#bf3d75" />
    <path d="m72.433594 470.867188h224c2.632812-36.570313 25.601562-72.433594 38.480468-106.953126 8.273438-22.292968 11.226563-46.210937 8.613282-69.847656-.867188-7.839844-2.367188-15.597656-4.476563-23.199218h-290.617187l-48 112h40v56c0 17.671874 14.328125 32 32 32zm0 0" fill="#4398d1" />
    <path d="m269.527344 440.996094-15.421875-4.257813c5.882812-19.398437 13.316406-38.289062 22.222656-56.496093 5.121094-11.121094 15.824219-38.398438 16.695313-41.800782l15.523437 3.929688c-1.320313 5.214844-13.019531 34.398437-17.664063 44.535156-8.566406 17.421875-15.707031 35.511719-21.355468 54.089844zm0 0" fill="#63b4eb" />
    <path d="m311.816406 323.667969-15.917968-1.601563c.601562-6.207031.695312-12.449218.285156-18.671875l16-1.039062c.453125 7.101562.332031 14.230469-.367188 21.3125zm0 0" fill="#63b4eb" />
    <path d="m52.152344 414.867188h-10.75v-16h10.75c14.765625-.160157 28.734375-6.710938 38.304687-17.953126l11.953125 10.625c-12.652344 14.59375-30.941406 23.085938-50.257812 23.328126zm0 0" fill="#126099" />
    <path d="m232.433594 54.867188c.023437-21.839844-14.699219-40.945313-35.824219-46.484376-21.128906-5.542968-43.332031 3.878907-54.027344 22.925782-10.695312 19.042968-7.1875 42.902344 8.539063 58.0625 5.898437 5.601562 9.261718 13.363281 9.3125 21.496094h48c-.09375-7.917969 3.09375-15.519532 8.800781-21.007813 9.707031-9.046875 15.214844-21.722656 15.199219-34.992187zm0 0" fill="#fdb62f" />
    <path d="m160.433594 110.867188h48v32h-48zm0 0" fill="#fd882f" />
    <path d="m206.089844 60.523438-11.3125-11.3125-10.34375 10.34375-10.34375-10.34375-11.3125 11.3125 13.65625 13.65625v36.6875h16v-36.6875zm0 0" fill="#fd882f" />
    <g fill="#fdb62f">
        <path d="m68.320312 13.726562 8.230469-13.7187495 40 23.9999995-8.230469 13.71875zm0 0" />
        <path d="m68.320312 112.007812 39.996094-24.007812 8.234375 13.71875-39.996093 24.007812zm0 0" />
        <path d="m72.433594 54.867188h40v16h-40zm0 0" />
        <path d="m40.433594 54.867188h16v16h-16zm0 0" />
        <path d="m252.324219 24.007812 39.996093-24.007812 8.234376 13.71875-39.996094 24.007812zm0 0" />
        <path d="m252.320312 101.726562 8.230469-13.71875 40 24-8.230469 13.71875zm0 0" />
        <path d="m256.433594 54.867188h40v16h-40zm0 0" />
        <path d="m312.433594 54.867188h16v16h-16zm0 0" />
    </g>
    <path d="m136.433594 322.867188c0 11.046874-8.953125 20-20 20s-20-8.953126-20-20c0-11.046876 8.953125-20 20-20s20 8.953124 20 20zm0 0" fill="#126099" />
</svg>